#N canvas 0 56 1920 1001 10;
#X obj 520 408 hsl 600 60 0 1 0 0 empty empty empty -2 -8 0 10 -262144
-262144 -1 28200 0;
#X obj 64 172 soundfiler;
#X floatatom 99 206 17 0 0 0 - - -, f 17;
#X obj 65 269 expr 44100 / $f1;
#X obj 99 227 s sample_rate;
#X obj 20 219 print;
#X msg 64 139 read -maxsize 1e+10 -resize \$1 chL chR;
#X obj 474 59 table chL;
#X obj 474 83 table chR;
#X obj 288 488 phasor~;
#X obj 303 511 r sample_rate;
#X obj 288 570 *~;
#X obj 382 584 snapshot~;
#X obj 410 516 tgl 15 0 empty empty empty 17 7 0 10 -262144 -1 -1 1
1;
#X floatatom 382 606 14 0 0 0 - - -, f 14;
#X obj 193 767 tabread~ chL;
#X obj 282 767 tabread~ chR;
#X obj 433 769 vsl 40 100 0 1 0 0 empty empty empty 0 -9 0 10 -262144
-1 -1 9857 1;
#X floatatom 433 886 5 0 0 0 - - -, f 5;
#X obj 193 802 *~;
#X obj 282 801 *~;
#X obj 382 677 /;
#X obj 397 643 r sample_rate;
#X floatatom 382 699 5 0 0 0 - - -, f 5;
#X obj 520 388 hsl 600 60 0 1 0 0 empty empty empty -2 -8 0 10 -262144
-1 -1 0 1;
#X obj 382 720 s position;
#X obj 520 365 r position;
#X obj 327 465 r seek;
#X obj 634 593 / 44100;
#X floatatom 634 615 19 0 0 0 - - -, f 19;
#X obj 634 696 / 60;
#X obj 634 718 int;
#X floatatom 634 746 5 0 0 0 - - -, f 5;
#X floatatom 674 746 5 0 0 0 - - -, f 5;
#X obj 674 696 % 60;
#X obj 739 649 int;
#X obj 711 649 f;
#X obj 714 695 -;
#X floatatom 714 746 5 0 0 0 - - -, f 5;
#X obj 742 678 t b;
#X obj 714 717 * 1000;
#X obj 224 889 dac~;
#X obj 308 208 vsl 17 82 -8 8 0 0 empty empty empty 0 -9 0 10 -262144
-1 -1 4050 1;
#X floatatom 308 300 5 0 0 0 - - -, f 5;
#X obj 308 334 *;
#X floatatom 308 356 21 0 0 0 - - -, f 21;
#X msg 308 180 1;
#X msg 354 180 0;
#X obj 845 237 bng 67 250 50 0 empty empty empty 17 7 0 10 -262144
-1 -1;
#X obj 663 87 presenter;
#X obj 410 478 loadbang;
#X msg 67 78 open ../drive.test.wav;
#X obj 714 141 s seek 0;
#X obj 410 542 metro 5;
#X obj 634 797 pack f f f;
#X obj 634 819 s time;
#X obj 1444 422 r time;
#X obj 1444 452 objtimer 0 13 0;
#X obj 44 28 block~ 64;
#X obj 1197 13 objslider 1;
#X obj 1197 298 ctlout 0 1;
#X obj 1352 15 objslider 2;
#X obj 1352 300 ctlout 0 2;
#X obj 1498 14 objslider 3;
#X obj 1498 299 ctlout 0 3;
#X obj 1505 637 s 1-objslider;
#X obj 1501 561 s 2-objslider;
#X obj 1505 594 s 3-objslider;
#X msg 1444 508 127 4000;
#X obj 1730 382 until;
#X obj 1730 408 counter;
#X obj 1730 345 t f b b;
#X obj 1730 448 + 1;
#X floatatom 1730 470 5 0 0 0 - - -, f 5;
#X msg 1730 506 \$1-objslider;
#X obj 1730 528 symbol;
#X obj 1730 558 t b s;
#X obj 1730 625 s \$1;
#X msg 1730 590 0, f 6;
#X msg 1730 315 100;
#X obj 1730 264 r dimall;
#X obj 730 119 s dimall;
#X obj 520 480 s seek;
#X msg 211 107 open ../wagner.mp3;
#X connect 0 0 82 0;
#X connect 1 0 2 0;
#X connect 1 0 3 0;
#X connect 1 0 5 0;
#X connect 2 0 4 0;
#X connect 3 0 44 1;
#X connect 6 0 1 0;
#X connect 9 0 11 0;
#X connect 10 0 11 1;
#X connect 11 0 15 0;
#X connect 11 0 16 0;
#X connect 11 0 12 0;
#X connect 12 0 14 0;
#X connect 13 0 53 0;
#X connect 14 0 21 0;
#X connect 14 0 28 0;
#X connect 15 0 19 0;
#X connect 16 0 20 0;
#X connect 17 0 18 0;
#X connect 18 0 19 1;
#X connect 18 0 20 1;
#X connect 19 0 41 0;
#X connect 20 0 41 1;
#X connect 21 0 23 0;
#X connect 22 0 21 1;
#X connect 23 0 25 0;
#X connect 26 0 24 0;
#X connect 27 0 9 1;
#X connect 28 0 29 0;
#X connect 29 0 30 0;
#X connect 29 0 34 0;
#X connect 29 0 36 1;
#X connect 29 0 35 0;
#X connect 30 0 31 0;
#X connect 31 0 32 0;
#X connect 32 0 54 0;
#X connect 33 0 54 1;
#X connect 34 0 33 0;
#X connect 35 0 37 1;
#X connect 35 0 39 0;
#X connect 36 0 37 0;
#X connect 37 0 40 0;
#X connect 38 0 54 2;
#X connect 39 0 36 0;
#X connect 40 0 38 0;
#X connect 42 0 43 0;
#X connect 43 0 44 0;
#X connect 44 0 45 0;
#X connect 45 0 9 0;
#X connect 46 0 42 0;
#X connect 47 0 42 0;
#X connect 49 0 46 0;
#X connect 49 1 47 0;
#X connect 49 1 52 0;
#X connect 49 1 81 0;
#X connect 50 0 13 0;
#X connect 51 0 6 0;
#X connect 53 0 12 0;
#X connect 54 0 55 0;
#X connect 56 0 57 0;
#X connect 57 0 68 0;
#X connect 59 0 60 0;
#X connect 59 1 60 2;
#X connect 61 0 62 0;
#X connect 61 1 62 2;
#X connect 63 0 64 0;
#X connect 63 1 64 2;
#X connect 68 0 65 0;
#X connect 68 0 67 0;
#X connect 68 0 66 0;
#X connect 69 0 70 0;
#X connect 70 0 72 0;
#X connect 71 0 69 0;
#X connect 71 1 70 2;
#X connect 72 0 73 0;
#X connect 73 0 74 0;
#X connect 74 0 75 0;
#X connect 75 0 76 0;
#X connect 76 0 78 0;
#X connect 76 1 77 1;
#X connect 78 0 77 0;
#X connect 79 0 71 0;
#X connect 80 0 79 0;
#X connect 83 0 6 0;
