#N canvas 0 56 1920 1001 10;
#X obj 64 172 soundfiler;
#X floatatom 99 206 17 0 0 0 - - -, f 17;
#X obj 65 269 expr 44100 / $f1;
#X obj 99 227 s sample_rate;
#X msg 64 115 open ~/Videos/output.2.wav;
#X obj 20 219 print;
#X msg 64 139 read -maxsize 1e+10 -resize \$1 chL chR;
#X obj 474 59 table chL;
#X obj 474 83 table chR;
#X obj 288 488 phasor~;
#X obj 303 511 r sample_rate;
#X obj 288 570 *~;
#X obj 382 584 snapshot~;
#X obj 410 542 metro 25;
#X obj 410 516 tgl 15 0 empty empty empty 17 7 0 10 -262144 -1 -1 1
1;
#X floatatom 382 606 14 0 0 0 - - -, f 14;
#X obj 193 747 tabread~ chL;
#X obj 282 747 tabread~ chR;
#X obj 521 615 vsl 33 70 0 1 0 0 empty empty empty 0 -9 0 10 -262144
-1 -1 4100 1;
#X floatatom 521 699 5 0 0 0 - - -, f 5;
#X obj 193 782 *~;
#X obj 282 781 *~;
#X obj 382 677 /;
#X obj 397 643 r sample_rate;
#X floatatom 382 699 5 0 0 0 - - -, f 5;
#X obj 520 495 hsl 600 60 0 1 0 0 empty empty empty -2 -8 0 10 -262144
-1 -1 4883 1;
#X obj 382 720 s position;
#X obj 520 450 r position;
#X obj 520 574 s seek;
#X obj 327 465 r seek;
#X obj 634 593 / 44100;
#X floatatom 634 615 19 0 0 0 - - -, f 19;
#X obj 634 696 / 60;
#X obj 634 718 int;
#X floatatom 634 746 5 0 0 0 - - -, f 5;
#X floatatom 674 746 5 0 0 0 - - -, f 5;
#X obj 674 696 % 60;
#X obj 739 649 int;
#X obj 711 649 f;
#X obj 714 695 -;
#X floatatom 714 746 5 0 0 0 - - -, f 5;
#X obj 742 678 t b;
#X obj 714 717 * 1000;
#X obj 224 869 dac~;
#X obj 308 208 vsl 17 82 -8 8 0 0 empty empty empty 0 -9 0 10 -262144
-1 -1 4556 1;
#X floatatom 308 300 5 0 0 0 - - -, f 5;
#X obj 308 324 *;
#X floatatom 308 346 12 0 0 0 - - -, f 12;
#X msg 308 180 1;
#X msg 354 180 0;
#X floatatom 726 329 5 0 0 0 - - -, f 5;
#X obj 730 385 f;
#X obj 682 423 -0.1;
#X floatatom 682 453 5 0 0 0 - - -, f 5;
#X obj 845 237 bng 67 250 50 0 empty empty empty 17 7 0 10 -262144
-1 -1;
#X connect 0 0 1 0;
#X connect 0 0 2 0;
#X connect 0 0 5 0;
#X connect 1 0 3 0;
#X connect 2 0 46 1;
#X connect 4 0 6 0;
#X connect 6 0 0 0;
#X connect 9 0 11 0;
#X connect 10 0 11 1;
#X connect 11 0 16 0;
#X connect 11 0 17 0;
#X connect 11 0 12 0;
#X connect 12 0 15 0;
#X connect 13 0 12 0;
#X connect 14 0 13 0;
#X connect 15 0 22 0;
#X connect 15 0 30 0;
#X connect 16 0 20 0;
#X connect 17 0 21 0;
#X connect 18 0 19 0;
#X connect 19 0 20 1;
#X connect 19 0 21 1;
#X connect 20 0 43 0;
#X connect 21 0 43 1;
#X connect 22 0 24 0;
#X connect 23 0 22 1;
#X connect 24 0 26 0;
#X connect 25 0 28 0;
#X connect 27 0 25 0;
#X connect 27 0 50 0;
#X connect 29 0 9 1;
#X connect 30 0 31 0;
#X connect 31 0 32 0;
#X connect 31 0 36 0;
#X connect 31 0 38 1;
#X connect 31 0 37 0;
#X connect 32 0 33 0;
#X connect 33 0 34 0;
#X connect 36 0 35 0;
#X connect 37 0 39 1;
#X connect 37 0 41 0;
#X connect 38 0 39 0;
#X connect 39 0 42 0;
#X connect 41 0 38 0;
#X connect 42 0 40 0;
#X connect 44 0 45 0;
#X connect 45 0 46 0;
#X connect 46 0 47 0;
#X connect 47 0 9 0;
#X connect 48 0 44 0;
#X connect 49 0 44 0;
#X connect 50 0 51 1;
#X connect 51 0 52 0;
#X connect 52 0 53 0;
