#N canvas 735 420 537 560 10;
#X obj 148 -129 netreceive 9988;
#X obj 148 -88 route key;
#X obj 183 10 route press;
#X obj 185 80 == 114;
#X obj 255 80 == 113;
#X floatatom 185 198 5 0 0 0 - - -, f 5;
#X obj 82 11 route release;
#X obj 185 160 spigot;
#X obj 255 102 t f f;
#X obj 185 102 t f f;
#X obj 67 80 == 114;
#X obj 129 81 == 113;
#X obj 67 102 t 0;
#X obj 212 134 == 1;
#X floatatom 255 199 5 0 0 0 - - -, f 5;
#X obj 255 161 spigot;
#X obj 282 135 == 1;
#X obj 129 103 t 0;
#X obj 212 265 == 1;
#X obj 184 299 spigot;
#X obj 185 234 t f f;
#X obj 282 265 == 1;
#X obj 255 299 spigot;
#X obj 255 234 t f f;
#X obj 184 342 outlet;
#X obj 255 342 outlet;
#X connect 0 0 1 0;
#X connect 1 0 2 0;
#X connect 1 0 6 0;
#X connect 2 0 3 0;
#X connect 2 0 4 0;
#X connect 3 0 9 0;
#X connect 4 0 8 0;
#X connect 5 0 20 0;
#X connect 6 0 10 0;
#X connect 6 0 11 0;
#X connect 7 0 5 0;
#X connect 8 0 15 0;
#X connect 8 1 16 0;
#X connect 9 0 7 0;
#X connect 9 1 13 0;
#X connect 10 0 12 0;
#X connect 11 0 17 0;
#X connect 12 0 5 0;
#X connect 13 0 7 1;
#X connect 14 0 23 0;
#X connect 15 0 14 0;
#X connect 16 0 15 1;
#X connect 17 0 14 0;
#X connect 18 0 19 1;
#X connect 19 0 24 0;
#X connect 20 0 19 0;
#X connect 20 1 18 0;
#X connect 21 0 22 1;
#X connect 22 0 25 0;
#X connect 23 0 22 0;
#X connect 23 1 21 0;
