#N canvas 354 396 536 647 10;
#X msg 290 206 devicename \$1;
#X obj 290 182 symbol;
#X obj 290 347 comport;
#X msg 290 233 close;
#X obj 290 369 print;
#X obj 61 64 inlet;
#X obj 323 71 inlet;
#X obj 387 122 \$1;
#X obj 387 59 loadbang;
#X msg 106 118 10;
#X obj 61 287 print;
#X obj 61 86 t list b;
#X obj 61 174 pack list list list list float;
#X connect 0 0 2 0;
#X connect 1 0 0 0;
#X connect 2 0 4 0;
#X connect 3 0 2 0;
#X connect 5 0 11 0;
#X connect 6 0 1 1;
#X connect 7 0 1 1;
#X connect 8 0 7 0;
#X connect 9 0 12 4;
#X connect 11 0 12 0;
#X connect 11 1 9 0;
#X connect 12 0 2 0;
#X connect 12 0 10 0;
