#N canvas 285 299 536 670 10;
#X msg 290 206 devicename \$1;
#X obj 290 182 symbol;
#X obj 290 347 comport;
#X msg 290 233 close;
#X obj 290 369 print;
#X obj 61 64 inlet;
#X obj 290 71 inlet;
#X msg 106 118 10;
#X obj 61 287 print;
#X obj 61 86 t list b;
#X obj 61 174 pack list list list list float;
#X obj 235 252 print tty;
#X connect 0 0 2 0;
#X connect 0 0 11 0;
#X connect 1 0 0 0;
#X connect 2 0 4 0;
#X connect 3 0 2 0;
#X connect 5 0 9 0;
#X connect 6 0 1 0;
#X connect 7 0 10 4;
#X connect 9 0 10 0;
#X connect 9 1 7 0;
#X connect 10 0 2 0;
#X connect 10 0 8 0;
