#N canvas 240 143 1440 761 10;
#X obj 520 408 hsl 600 60 0 1 0 0 empty empty empty -2 -8 0 10 -262144
-262144 -1 9700 0;
#X obj 64 172 soundfiler;
#X floatatom 99 206 18 0 0 0 - - -, f 18;
#X obj 65 269 expr 44100 / $f1;
#X obj 20 219 print;
#X msg 64 139 read -maxsize 1e+10 -resize \$1 chL chR;
#X obj 520 310 table chL;
#X obj 520 334 table chR;
#X obj 308 418 phasor~;
#X obj 199 710 *~;
#X obj 434 556 snapshot~;
#X obj 434 452 tgl 15 0 empty empty empty 17 7 0 10 -262144 -1 -1 1
1;
#X obj 199 767 tabread~ chL;
#X obj 288 767 tabread~ chR;
#X obj 404 766 vsl 40 100 0 1 0 0 empty empty empty 0 -9 0 10 -262144
-1 -1 9900 1;
#X floatatom 404 883 5 0 0 0 - - -, f 5;
#X obj 199 833 *~;
#X obj 288 832 *~;
#X floatatom 434 584 5 0 0 0 - - -, f 5;
#X obj 520 388 hsl 600 60 0 1 0 0 empty empty empty -2 -8 0 10 -262144
-1 -1 9655 1;
#X obj 434 613 s position;
#X obj 520 365 r position;
#X obj 347 393 r seek;
#X floatatom 634 623 19 0 0 0 - - -, f 19;
#X obj 634 725 / 60;
#X obj 634 747 int;
#X floatatom 634 775 5 0 0 0 - - -, f 5;
#X floatatom 674 775 5 0 0 0 - - -, f 5;
#X obj 674 725 % 60;
#X obj 739 678 int;
#X obj 711 678 f;
#X obj 714 724 -;
#X floatatom 714 775 5 0 0 0 - - -, f 5;
#X obj 742 707 t b;
#X obj 714 746 * 1000;
#X obj 199 922 dac~;
#X obj 308 208 vsl 17 82 -8 8 0 0 empty empty empty 0 -9 0 10 -262144
-1 -1 4556 1;
#X floatatom 308 300 5 0 0 0 - - -, f 5;
#X obj 308 334 *;
#X floatatom 308 356 21 0 0 0 - - -, f 21;
#X msg 308 180 1;
#X msg 354 180 0;
#X obj 845 237 bng 67 250 50 0 empty empty empty 17 7 0 10 -262144
-1 -1;
#X obj 663 87 presenter;
#X obj 434 414 loadbang;
#X msg 67 78 open ../drive.test.wav;
#X obj 714 141 s seek 0;
#X obj 634 826 pack f f f;
#X obj 634 848 s time;
#X obj 1462 422 r time;
#X obj 44 28 block~ 64;
#X obj 1179 13 objslider 1;
#X obj 1179 298 ctlout 0 1;
#X obj 1352 15 objslider 2;
#X obj 1498 14 objslider 3;
#X obj 1505 637 s 1-objslider;
#X obj 1356 645 s 2-objslider;
#X obj 1240 641 s 3-objslider;
#X obj 1800 142 until;
#X obj 1800 168 counter;
#X obj 1800 105 t f b b;
#X obj 1800 208 + 1;
#X floatatom 1800 230 5 0 0 0 - - -, f 5;
#X msg 1800 266 \$1-objslider;
#X obj 1800 288 symbol;
#X obj 1800 318 t b s;
#X obj 1800 385 s \$1;
#X msg 1800 350 0, f 6;
#X msg 1800 75 100;
#X obj 1800 24 r dimall;
#X obj 730 119 s dimall;
#X obj 520 480 s seek;
#X msg 211 107 open ../wagner.wav;
#X obj 1352 300 ctlout 1 1;
#X obj 1498 299 ctlout 2 1;
#X obj 1564 429 r time;
#X msg 1546 515 0 50;
#X msg 1444 508 127 50;
#X obj 1299 411 r time;
#X msg 1302 495 127 6000;
#X obj 1048 508 r time;
#X msg 1051 592 13 6000;
#X obj 1051 546 objtimer 2 50 0;
#X obj 1302 449 objtimer 3 7 0;
#X obj 1444 463 objtimer 3 2 0;
#X obj 1546 470 objtimer 2 50 150;
#X msg 404 732 1;
#X obj 404 704 loadbang;
#X msg 79 450 \; pd dsp 1;
#X msg 79 500 \; pd dsp 0;
#X obj 79 416 loadbang;
#X obj 240 -3 loadbang;
#X obj 371 105 loadbang;
#X msg 240 35 open ../../intheflesh.wav;
#X obj 434 478 metro 80;
#X obj 308 457 s~ phasor;
#X obj 199 638 r~ phasor;
#X obj 451 516 r~ phasor;
#X obj 634 553 r position;
#X obj 404 904 s gain;
#X obj 214 800 r gain;
#X obj 99 227 s sample_count;
#X obj 214 674 r sample_count;
#X obj 634 590 expr $f1 * $f2 / 44100;
#X obj 719 553 r sample_count;
#X connect 0 0 71 0;
#X connect 1 0 2 0;
#X connect 1 0 3 0;
#X connect 1 0 4 0;
#X connect 2 0 101 0;
#X connect 3 0 38 1;
#X connect 5 0 1 0;
#X connect 8 0 95 0;
#X connect 9 0 12 0;
#X connect 9 0 13 0;
#X connect 10 0 18 0;
#X connect 11 0 94 0;
#X connect 12 0 16 0;
#X connect 13 0 17 0;
#X connect 14 0 15 0;
#X connect 15 0 99 0;
#X connect 16 0 35 0;
#X connect 17 0 35 1;
#X connect 18 0 20 0;
#X connect 21 0 19 0;
#X connect 22 0 8 1;
#X connect 23 0 24 0;
#X connect 23 0 28 0;
#X connect 23 0 30 1;
#X connect 23 0 29 0;
#X connect 24 0 25 0;
#X connect 25 0 26 0;
#X connect 26 0 47 0;
#X connect 27 0 47 1;
#X connect 28 0 27 0;
#X connect 29 0 31 1;
#X connect 29 0 33 0;
#X connect 30 0 31 0;
#X connect 31 0 34 0;
#X connect 32 0 47 2;
#X connect 33 0 30 0;
#X connect 34 0 32 0;
#X connect 36 0 37 0;
#X connect 37 0 38 0;
#X connect 38 0 39 0;
#X connect 39 0 8 0;
#X connect 40 0 36 0;
#X connect 41 0 36 0;
#X connect 43 1 46 0;
#X connect 43 1 70 0;
#X connect 44 0 11 0;
#X connect 45 0 5 0;
#X connect 47 0 48 0;
#X connect 49 0 84 0;
#X connect 51 0 52 0;
#X connect 51 1 52 2;
#X connect 53 0 73 0;
#X connect 53 1 73 2;
#X connect 54 0 74 0;
#X connect 54 1 74 2;
#X connect 58 0 59 0;
#X connect 59 0 61 0;
#X connect 60 0 58 0;
#X connect 60 1 59 2;
#X connect 61 0 62 0;
#X connect 62 0 63 0;
#X connect 63 0 64 0;
#X connect 64 0 65 0;
#X connect 65 0 67 0;
#X connect 65 1 66 1;
#X connect 67 0 66 0;
#X connect 68 0 60 0;
#X connect 69 0 68 0;
#X connect 72 0 5 0;
#X connect 75 0 85 0;
#X connect 76 0 55 0;
#X connect 77 0 55 0;
#X connect 78 0 83 0;
#X connect 79 0 56 0;
#X connect 80 0 82 0;
#X connect 81 0 56 0;
#X connect 81 0 57 0;
#X connect 82 0 81 0;
#X connect 83 0 79 0;
#X connect 84 0 77 0;
#X connect 85 0 76 0;
#X connect 86 0 14 0;
#X connect 87 0 86 0;
#X connect 90 0 88 0;
#X connect 91 0 93 0;
#X connect 92 0 40 0;
#X connect 93 0 5 0;
#X connect 94 0 10 0;
#X connect 96 0 9 0;
#X connect 97 0 10 0;
#X connect 98 0 103 0;
#X connect 100 0 16 1;
#X connect 100 0 17 1;
#X connect 102 0 9 1;
#X connect 103 0 23 0;
#X connect 104 0 103 1;
