#N canvas 0 56 1920 1001 10;
#X obj 64 172 soundfiler;
#X floatatom 99 206 18 0 0 0 - - -, f 18;
#X obj 65 269 expr 44100 / $f1;
#X obj 20 219 print;
#X msg 64 139 read -maxsize 1e+10 -resize \$1 chL chR;
#X obj 520 310 table chL;
#X obj 520 334 table chR;
#X obj 308 418 phasor~;
#X obj 199 710 *~;
#X obj 434 556 snapshot~;
#X obj 434 452 tgl 15 0 empty empty empty 17 7 0 10 -262144 -1 -1 1
1;
#X obj 199 767 tabread~ chL;
#X obj 288 767 tabread~ chR;
#X obj 404 766 vsl 40 100 0 1 0 0 empty empty empty 0 -9 0 10 -262144
-1 -1 9900 1;
#X floatatom 404 883 5 0 0 0 - - -, f 5;
#X obj 199 833 *~;
#X obj 288 832 *~;
#X floatatom 434 584 13 0 0 0 - - -, f 13;
#X obj 434 613 s position;
#X obj 520 365 r position;
#X obj 347 393 r seek;
#X floatatom 634 623 19 0 0 0 - - -, f 19;
#X obj 634 725 / 60;
#X obj 634 747 int;
#X floatatom 634 775 5 0 0 0 - - -, f 5;
#X floatatom 674 775 5 0 0 0 - - -, f 5;
#X obj 674 725 % 60;
#X obj 739 678 int;
#X obj 711 678 f;
#X obj 714 724 -;
#X floatatom 714 775 5 0 0 0 - - -, f 5;
#X obj 742 707 t b;
#X obj 714 746 * 1000;
#X obj 199 922 dac~;
#X obj 308 208 vsl 17 82 -8 8 0 0 empty empty empty 0 -9 0 10 -262144
-1 -1 4050 1;
#X floatatom 308 300 5 0 0 0 - - -, f 5;
#X obj 308 334 *;
#X floatatom 308 356 21 0 0 0 - - -, f 21;
#X msg 308 180 1;
#X msg 354 180 0;
#X obj 638 86 presenter;
#X obj 434 414 loadbang;
#X msg 67 78 open ../drive.test.wav;
#X obj 634 826 pack f f f;
#X obj 634 848 s time;
#X obj 1444 422 r time;
#X obj 44 28 block~ 64;
#X obj 1132 -17 objslider 1;
#X obj 1132 268 ctlout 0 1;
#X obj 1282 -15 objslider 2;
#X obj 1428 -16 objslider 3;
#X obj 1446 648 s 1-objslider;
#X obj 1313 658 s 2-objslider;
#X obj 1187 651 s 3-objslider;
#X obj 1800 142 until;
#X obj 1800 168 counter;
#X obj 1800 105 t f b b;
#X obj 1800 208 + 1;
#X floatatom 1800 230 5 0 0 0 - - -, f 5;
#X msg 1800 262 \$1-objslider;
#X obj 1800 288 symbol;
#X obj 1800 318 t b s;
#X obj 1800 385 s \$1;
#X msg 1800 350 0, f 6;
#X msg 1800 75 100;
#X obj 1800 41 r dimall;
#X obj 782 1 s dimall;
#X obj 520 480 s seek;
#X msg 211 107 open ../wagner.wav;
#X obj 1282 270 ctlout 1 1;
#X obj 1428 269 ctlout 2 1;
#X obj 1546 429 r time;
#X obj 1321 411 r time;
#X msg 1321 495 127 6000;
#X obj 1187 412 r time;
#X msg 1199 508 13 6000;
#X msg 404 732 1;
#X obj 404 704 loadbang;
#X msg 79 450 \; pd dsp 1;
#X msg 79 486 \; pd dsp 0;
#X obj 79 427 loadbang;
#X obj 240 -63 loadbang;
#X msg 240 35 open ../../intheflesh.wav;
#X obj 308 457 s~ phasor;
#X obj 199 638 r~ phasor;
#X obj 451 516 r~ phasor;
#X obj 634 553 r position;
#X obj 404 904 s gain;
#X obj 214 800 r gain;
#X obj 99 227 s sample_count;
#X obj 214 674 r sample_count;
#X obj 634 590 expr $f1 * $f2 / 44100;
#X obj 719 553 r sample_count;
#X obj 372 86 r start;
#X obj 372 108 t b;
#X obj 590 365 r skipping;
#X obj 814 45 bng 61 250 50 0 empty empty empty 17 7 0 10 -262144 -1
-1;
#X obj 883 45 bng 61 250 50 0 empty empty empty 17 7 0 10 -262144 -1
-1;
#X obj 829 156 r position;
#X obj 814 188 +;
#X obj 814 210 s skipping;
#X obj 814 111 -0.005;
#X obj 883 111 0.005;
#X obj 714 141 t b b b;
#X obj 421 86 r stop;
#X obj 421 107 t b;
#X obj 753 203 s stop;
#X obj 714 253 s start;
#N canvas 0 56 1920 1001 times 0;
#X obj 337 -383 r time;
#X obj 323 504 s 1-objslider;
#X obj 415 504 s 2-objslider;
#X obj 507 504 s 3-objslider;
#X obj 439 -376 r time;
#X obj 214 -394 r time;
#X msg 214 -310 127 6000;
#X obj 778 -351 r time;
#X msg 778 -267 13 6000;
#X obj 778 -313 objtimer 0 5 0;
#X obj 214 -356 objtimer 0 8 0;
#X obj 337 -342 objtimer 0 15 0;
#X msg 337 -297 34 5000;
#X msg 439 -290 127 500;
#X obj 439 -335 objtimer 0 20 150;
#X obj 596 504 s 4-objslider;
#X obj 604 -367 r time;
#X obj 604 -326 objtimer 0 30 150;
#X msg 604 -281 60 2500;
#X connect 0 0 11 0;
#X connect 4 0 14 0;
#X connect 5 0 10 0;
#X connect 6 0 2 0;
#X connect 7 0 9 0;
#X connect 8 0 2 0;
#X connect 8 0 3 0;
#X connect 9 0 8 0;
#X connect 10 0 6 0;
#X connect 11 0 12 0;
#X connect 12 0 1 0;
#X connect 12 0 15 0;
#X connect 13 0 1 0;
#X connect 14 0 13 0;
#X connect 16 0 17 0;
#X connect 17 0 18 0;
#X connect 18 0 2 0;
#X restore 949 569 pd times;
#X obj 1187 450 objtimer 0 5 0;
#X obj 1321 449 objtimer 0 8 0;
#X obj 1444 463 objtimer 0 15 0;
#X msg 1444 508 34 5000;
#X msg 1546 515 127 500;
#X obj 1546 470 objtimer 0 20 150;
#X msg 1620 583 1 0 1 0;
#X msg 1687 490 1 1 1 1;
#X obj 1568 -16 objslider 4;
#X obj 1568 269 ctlout 3 1;
#X obj 952 45 bng 61 250 50 0 empty empty empty 17 7 0 10 -262144 -1
-1;
#X obj 638 189 s start;
#X obj 672 163 s stop;
#X obj 434 478 metro 200;
#X obj 1811 483 r ard;
#X obj 1778 583 objtty;
#X msg 976 658 127 6000;
#X msg 1062 784 0 10000;
#X obj 1409 805 s 4-objslider;
#X obj 952 138 s skipping;
#X obj 952 111 0;
#X obj 497 213 spigot;
#X obj 497 191 t b f;
#X obj 497 134 r stopwatch;
#X obj 497 161 != 0;
#X obj 1026 185 r position;
#X obj 933 256 <;
#X obj 933 315 spigot;
#X obj 933 293 t b f;
#X obj 520 388 hsl 600 60 0 1 0 0 empty empty empty -2 -8 0 10 -262144
-1 -1 0 1;
#X obj 566 480 s c_position;
#X floatatom 1026 207 5 0 0 0 - - -, f 5;
#X floatatom 948 207 5 0 0 0 - - -, f 5;
#X obj 948 185 r c_position;
#X obj 520 408 hsl 600 60 0 1 0 0 empty empty empty -2 -8 0 10 -258699
-262144 -1 0 0;
#X obj 733 180 0;
#X obj 733 227 s skipping;
#X obj 724 -67 r reset;
#X obj 933 337 s reset;
#X obj 724 -30 t b b;
#X obj 744 57 s stop;
#X obj 724 34 0;
#X obj 724 81 s skipping;
#X connect 0 0 1 0;
#X connect 0 0 2 0;
#X connect 0 0 3 0;
#X connect 1 0 89 0;
#X connect 2 0 36 1;
#X connect 4 0 0 0;
#X connect 7 0 83 0;
#X connect 8 0 11 0;
#X connect 8 0 12 0;
#X connect 9 0 17 0;
#X connect 10 0 122 0;
#X connect 11 0 15 0;
#X connect 12 0 16 0;
#X connect 13 0 14 0;
#X connect 14 0 87 0;
#X connect 15 0 33 0;
#X connect 16 0 33 1;
#X connect 17 0 18 0;
#X connect 19 0 138 0;
#X connect 20 0 7 1;
#X connect 21 0 22 0;
#X connect 21 0 26 0;
#X connect 21 0 28 1;
#X connect 21 0 27 0;
#X connect 22 0 23 0;
#X connect 23 0 24 0;
#X connect 24 0 43 0;
#X connect 25 0 43 1;
#X connect 26 0 25 0;
#X connect 27 0 29 1;
#X connect 27 0 31 0;
#X connect 28 0 29 0;
#X connect 29 0 32 0;
#X connect 30 0 43 2;
#X connect 31 0 28 0;
#X connect 32 0 30 0;
#X connect 34 0 35 0;
#X connect 35 0 36 0;
#X connect 36 0 37 0;
#X connect 37 0 7 0;
#X connect 38 0 34 0;
#X connect 39 0 34 0;
#X connect 40 0 120 0;
#X connect 40 2 121 0;
#X connect 40 3 103 0;
#X connect 41 0 10 0;
#X connect 42 0 4 0;
#X connect 43 0 44 0;
#X connect 45 0 111 0;
#X connect 47 0 48 0;
#X connect 47 1 48 2;
#X connect 49 0 69 0;
#X connect 49 1 69 2;
#X connect 50 0 70 0;
#X connect 50 1 70 2;
#X connect 54 0 55 0;
#X connect 55 0 57 0;
#X connect 56 0 54 0;
#X connect 56 1 55 2;
#X connect 57 0 58 0;
#X connect 58 0 59 0;
#X connect 59 0 60 0;
#X connect 60 0 61 0;
#X connect 61 0 63 0;
#X connect 61 1 62 1;
#X connect 63 0 62 0;
#X connect 64 0 56 0;
#X connect 65 0 64 0;
#X connect 68 0 4 0;
#X connect 71 0 114 0;
#X connect 72 0 110 0;
#X connect 73 0 52 0;
#X connect 74 0 109 0;
#X connect 75 0 53 0;
#X connect 76 0 13 0;
#X connect 77 0 76 0;
#X connect 80 0 78 0;
#X connect 81 0 82 0;
#X connect 82 0 4 0;
#X connect 84 0 8 0;
#X connect 85 0 9 0;
#X connect 86 0 91 0;
#X connect 88 0 15 1;
#X connect 88 0 16 1;
#X connect 90 0 8 1;
#X connect 91 0 21 0;
#X connect 92 0 91 1;
#X connect 93 0 94 0;
#X connect 94 0 38 0;
#X connect 95 0 143 0;
#X connect 96 0 101 0;
#X connect 97 0 102 0;
#X connect 98 0 99 1;
#X connect 99 0 100 0;
#X connect 101 0 99 0;
#X connect 102 0 99 0;
#X connect 103 0 107 0;
#X connect 103 1 144 0;
#X connect 103 2 106 0;
#X connect 104 0 105 0;
#X connect 105 0 39 0;
#X connect 109 0 75 0;
#X connect 109 0 115 0;
#X connect 110 0 73 0;
#X connect 111 0 112 0;
#X connect 111 0 116 0;
#X connect 112 0 52 0;
#X connect 113 0 51 0;
#X connect 114 0 113 0;
#X connect 114 0 116 0;
#X connect 115 0 124 0;
#X connect 116 0 124 0;
#X connect 117 0 118 0;
#X connect 117 1 118 2;
#X connect 119 0 129 0;
#X connect 122 0 9 0;
#X connect 123 0 124 1;
#X connect 125 0 53 0;
#X connect 125 0 52 0;
#X connect 125 0 51 0;
#X connect 125 0 127 0;
#X connect 126 0 53 0;
#X connect 126 0 52 0;
#X connect 126 0 51 0;
#X connect 126 0 127 0;
#X connect 129 0 128 0;
#X connect 131 0 130 0;
#X connect 131 1 130 1;
#X connect 132 0 133 0;
#X connect 133 0 131 0;
#X connect 134 0 140 0;
#X connect 135 0 137 0;
#X connect 136 0 147 0;
#X connect 137 0 136 0;
#X connect 137 1 136 1;
#X connect 138 0 139 0;
#X connect 140 0 135 0;
#X connect 141 0 135 1;
#X connect 142 0 141 0;
#X connect 143 0 67 0;
#X connect 143 0 139 0;
#X connect 144 0 145 0;
#X connect 146 0 148 0;
#X connect 148 0 150 0;
#X connect 148 1 66 0;
#X connect 148 1 149 0;
#X connect 150 0 151 0;
